<?xml version="1.0" encoding="UTF-8" standalone="no"?>
<!-- Created with Inkscape (http://www.inkscape.org/) -->

<svg
   xmlns:dc="http://purl.org/dc/elements/1.1/"
   xmlns:cc="http://creativecommons.org/ns#"
   xmlns:rdf="http://www.w3.org/1999/02/22-rdf-syntax-ns#"
   xmlns:svg="http://www.w3.org/2000/svg"
   xmlns="http://www.w3.org/2000/svg"
   xmlns:sodipodi="http://sodipodi.sourceforge.net/DTD/sodipodi-0.dtd"
   xmlns:inkscape="http://www.inkscape.org/namespaces/inkscape"
   width="213.683"
   height="765.2016"
   id="svg2"
   version="1.1"
   inkscape:version="0.48.3.1 r9886"
   sodipodi:docname="person.svg"
   inkscape:export-filename="/home/kindt/Dokumente/PR/person.png"
   inkscape:export-xdpi="199"
   inkscape:export-ydpi="199">
  <defs
     id="defs4">
    <marker
       inkscape:stockid="Arrow2Mend"
       orient="auto"
       refY="0"
       refX="0"
       id="Arrow2Mend"
       style="overflow:visible">
      <path
         id="path5096"
         style="fill-rule:evenodd;stroke-width:0.625;stroke-linejoin:round"
         d="M 8.7185878,4.0337352 -2.2072895,0.01601326 8.7185884,-4.0017078 c -1.7454984,2.3720609 -1.7354408,5.6174519 -6e-7,8.035443 z"
         transform="scale(-0.6,-0.6)"
         inkscape:connector-curvature="0" />
    </marker>
    <marker
       inkscape:stockid="Arrow2Mstart"
       orient="auto"
       refY="0"
       refX="0"
       id="Arrow2Mstart"
       style="overflow:visible">
      <path
         id="path5093"
         style="fill-rule:evenodd;stroke-width:0.625;stroke-linejoin:round"
         d="M 8.7185878,4.0337352 -2.2072895,0.01601326 8.7185884,-4.0017078 c -1.7454984,2.3720609 -1.7354408,5.6174519 -6e-7,8.035443 z"
         transform="scale(0.6,0.6)"
         inkscape:connector-curvature="0" />
    </marker>
    <marker
       inkscape:stockid="Arrow2Lstart"
       orient="auto"
       refY="0"
       refX="0"
       id="Arrow2Lstart"
       style="overflow:visible">
      <path
         id="path5087"
         style="fill-rule:evenodd;stroke-width:0.625;stroke-linejoin:round"
         d="M 8.7185878,4.0337352 -2.2072895,0.01601326 8.7185884,-4.0017078 c -1.7454984,2.3720609 -1.7354408,5.6174519 -6e-7,8.035443 z"
         transform="matrix(1.1,0,0,1.1,1.1,0)"
         inkscape:connector-curvature="0" />
    </marker>
    <marker
       inkscape:stockid="Arrow1Mstart"
       orient="auto"
       refY="0"
       refX="0"
       id="Arrow1Mstart"
       style="overflow:visible">
      <path
         id="path5075"
         d="M 0,0 5,-5 -12.5,0 5,5 0,0 z"
         style="fill-rule:evenodd;stroke:#000000;stroke-width:1pt"
         transform="matrix(0.4,0,0,0.4,4,0)"
         inkscape:connector-curvature="0" />
    </marker>
    <marker
       inkscape:stockid="Arrow1Mend"
       orient="auto"
       refY="0"
       refX="0"
       id="Arrow1Mend"
       style="overflow:visible">
      <path
         id="path5078"
         d="M 0,0 5,-5 -12.5,0 5,5 0,0 z"
         style="fill-rule:evenodd;stroke:#000000;stroke-width:1pt"
         transform="matrix(-0.4,0,0,-0.4,-4,0)"
         inkscape:connector-curvature="0" />
    </marker>
    <marker
       inkscape:stockid="Arrow2Mend"
       orient="auto"
       refY="0"
       refX="0"
       id="Arrow2Mend-9"
       style="overflow:visible">
      <path
         inkscape:connector-curvature="0"
         id="path5096-8"
         style="fill-rule:evenodd;stroke-width:0.625;stroke-linejoin:round"
         d="M 8.7185878,4.0337352 -2.2072895,0.01601326 8.7185884,-4.0017078 c -1.7454984,2.3720609 -1.7354408,5.6174519 -6e-7,8.035443 z"
         transform="scale(-0.6,-0.6)" />
    </marker>
    <marker
       inkscape:stockid="Arrow2Mend"
       orient="auto"
       refY="0"
       refX="0"
       id="Arrow2Mend-99"
       style="overflow:visible">
      <path
         inkscape:connector-curvature="0"
         id="path5096-2"
         style="fill-rule:evenodd;stroke-width:0.625;stroke-linejoin:round"
         d="M 8.7185878,4.0337352 -2.2072895,0.01601326 8.7185884,-4.0017078 c -1.7454984,2.3720609 -1.7354408,5.6174519 -6e-7,8.035443 z"
         transform="scale(-0.6,-0.6)" />
    </marker>
  </defs>
  <sodipodi:namedview
     id="base"
     pagecolor="#ffffff"
     bordercolor="#666666"
     borderopacity="1.0"
     inkscape:pageopacity="0.0"
     inkscape:pageshadow="2"
     inkscape:zoom="0.14806937"
     inkscape:cx="805.22407"
     inkscape:cy="785.25199"
     inkscape:document-units="px"
     inkscape:current-layer="layer1"
     showgrid="true"
     inkscape:window-width="1280"
     inkscape:window-height="743"
     inkscape:window-x="0"
     inkscape:window-y="309"
     inkscape:window-maximized="1"
     fit-margin-top="0"
     fit-margin-left="0"
     fit-margin-right="0"
     fit-margin-bottom="0">
    <inkscape:grid
       type="xygrid"
       id="grid2985"
       empspacing="5"
       visible="true"
       enabled="true"
       snapvisiblegridlinesonly="true"
       originx="-138.15732px"
       originy="-35.084927px" />
  </sodipodi:namedview>
  <metadata
     id="metadata7">
    <rdf:RDF>
      <cc:Work
         rdf:about="">
        <dc:format>image/svg+xml</dc:format>
        <dc:type
           rdf:resource="http://purl.org/dc/dcmitype/StillImage" />
        <dc:title></dc:title>
      </cc:Work>
    </rdf:RDF>
  </metadata>
  <g
     inkscape:label="Layer 1"
     inkscape:groupmode="layer"
     id="layer1"
     transform="translate(-138.15732,-252.07564)">
    <path
       style="fill:#ff0000;stroke:#2b0000;stroke-width:1px;stroke-linecap:butt;stroke-linejoin:miter;stroke-opacity:1"
       d="m 203.82958,412.61833 7.76457,-28.97778 c -11.15985,-9.88548 -31.19025,-12.80804 -33.46065,-29.67127 0.97957,-25.03995 4.26035,-38.00308 15.52914,-57.95555 20.01202,-36.04885 90.21502,-27.59076 77.27407,20.70552 l -5.17639,19.31852 c 20.64734,12.43428 28.23679,21.3697 14.14214,24.49489 -8.59058,-0.73718 -17.89698,-2.71421 -21.90671,4.48288 l -0.34675,20.61261 c 1.06211,11.01191 -18.12993,3.17847 -26.73633,3.18878 l -7.76458,28.97778"
       id="path3840"
       inkscape:connector-curvature="0"
       sodipodi:nodetypes="ccccccccccc" />
    <path
       style="opacity:0.85;fill:#00ff00;stroke:#008000;stroke-width:1px;stroke-linecap:butt;stroke-linejoin:miter;stroke-opacity:1"
       d="m 195.03541,412.07913 2.09299,-29.9269 c -12.84097,-7.57459 -33.06102,-6.62167 -38.5072,-22.74192 -3.81602,-24.76685 -3.06886,-38.1178 4.18599,-59.8538 12.7663,-39.20488 83.2934,-44.29683 79.80507,5.58132 l -1.39534,19.95127 c 22.64048,8.26636 31.79538,15.58957 18.55594,21.34659 -8.57341,0.91544 -18.08606,0.75038 -20.64893,8.5803 l 3.59248,20.3001 c 3.14367,10.60696 -17.19041,6.57926 -25.63674,8.23147 l -2.093,29.92691"
       id="path3840-4"
       inkscape:connector-curvature="0"
       sodipodi:nodetypes="ccccccccccc" />
    <path
       style="fill:#808080;stroke:#000000;stroke-width:1px;stroke-linecap:butt;stroke-linejoin:miter;stroke-opacity:1"
       d="m 243.3116,487.15113 26.6884,5.21105 50,0 c 10,0 10,-15 0,-15 l -40,-5 -35,-15 z"
       id="path3865"
       inkscape:connector-curvature="0"
       sodipodi:nodetypes="ccccccc" />
    <path
       style="fill:#999999;stroke:#000000"
       d="m 154.97393,771.2187 32.07365,112.12171 c 8.0184,28.03044 38.29027,30.96538 31.56596,-1.89468 L 196.19915,771.91221 c -6.72432,-32.86007 -52.77917,-34.84767 -41.22522,-0.69351 z"
       id="path3788-4"
       inkscape:connector-curvature="0"
       sodipodi:nodetypes="ccccc" />
    <path
       style="fill:#e6e6e6;fill-rule:nonzero;stroke:#333333"
       d="m 200,412.36218 c 33.24,0 54.89432,25.95108 50,70 -15.00511,125.0358 -10,100 0,230 0,40 -16.76,80 -50,80 -33.24,0 -68.69187,-36.54066 -60,-80 20,-100 10,-160 0,-220 -7.28616,-43.71698 26.76,-80 60,-80 z"
       id="rect2987"
       inkscape:connector-curvature="0"
       sodipodi:nodetypes="sccssss" />
    <path
       style="fill:#ff0000;stroke:#800000"
       d="m 210,772.36218 60,100 c 15,25.00001 45,20 30,-10 l -50,-100 c -15,-30 -60,-20 -40,10 z"
       id="path3788"
       inkscape:connector-curvature="0"
       sodipodi:nodetypes="ccccc" />
    <path
       style="fill:#ff0000;stroke:#800000;stroke-width:1px;stroke-linecap:butt;stroke-linejoin:miter;stroke-opacity:1"
       d="m 280.38929,887.17942 c 18.46607,113.50768 18.46607,113.50768 18.46607,113.50768 1.60575,9.8704 27.88709,15.7262 24.6756,-4.01432 L 310,882.36218 c -2.96218,-15.18167 -36.15157,-4.25013 -29.61071,4.81724 z"
       id="path3801"
       inkscape:connector-curvature="0"
       sodipodi:nodetypes="ccccc" />
    <path
       style="fill:#999999;stroke:#000000"
       d="m 189.24537,890.15688 c -29.76416,111.08132 -29.76416,111.08132 -29.76416,111.08132 -2.58824,9.6595 18.97171,25.7892 24.14815,6.4705 l 34.59379,-109.78725 c 3.53202,-15.05929 -31.21922,-18.71792 -28.97778,-7.76457 z"
       id="path3801-0"
       inkscape:connector-curvature="0"
       sodipodi:nodetypes="ccccc" />
    <path
       style="fill:#999999;stroke:#1a1a1a;stroke-width:1px;stroke-linecap:butt;stroke-linejoin:miter;stroke-opacity:1"
       d="m 205,437.36218 60,90 80,40 c 15,10 0,20 -10,15 l -85,-40 -70,-80 c -10,-15 10,-40 25,-25 z"
       id="path3863"
       inkscape:connector-curvature="0"
       sodipodi:nodetypes="ccccccc" />
    <path
       style="fill:none;stroke:#000000;stroke-width:1px;stroke-linecap:butt;stroke-linejoin:miter;stroke-opacity:1"
       d="m 250,542.36218 c 10,5 25,-10 15,-15"
       id="path3867"
       inkscape:connector-curvature="0"
       sodipodi:nodetypes="cc" />
    <path
       style="fill:none;stroke:#000000;stroke-width:1px;stroke-linecap:butt;stroke-linejoin:miter;stroke-opacity:1"
       d="m 272.69898,492.44381 c 8.43834,-7.40515 13.86675,-10.35756 10,-20"
       id="path3869"
       inkscape:connector-curvature="0"
       sodipodi:nodetypes="cc" />
    <path
       style="opacity:0.86521738;fill:#00ff00;stroke:#008000"
       d="m 207.17453,769.71575 32.07365,112.12172 c 8.01841,28.03044 38.29028,30.96537 31.56596,-1.89469 L 248.39975,770.40926 c -6.72431,-32.86006 -52.77917,-34.84766 -41.22522,-0.69351 z"
       id="path3788-7"
       inkscape:connector-curvature="0"
       sodipodi:nodetypes="ccccc" />
    <path
       style="opacity:0.85;fill:#00ff00;stroke:#008000;stroke-width:1px;stroke-linecap:butt;stroke-linejoin:miter;stroke-opacity:1"
       d="m 242.93243,889.45648 c 9.95375,114.56852 9.95375,114.56852 9.95375,114.56852 0.86554,9.9625 26.63726,17.7611 24.90615,-2.164 l -4.9725,-115.00115 c -1.82227,-15.36023 -28.18475,-11.46509 -29.8874,2.59663 z"
       id="path3801-02"
       inkscape:connector-curvature="0"
       sodipodi:nodetypes="ccccc" />
    <path
       style="fill:none;stroke:#000000;stroke-width:2.20000005;stroke-linecap:butt;stroke-linejoin:miter;stroke-miterlimit:4;stroke-opacity:1;stroke-dasharray:none;marker-start:none;marker-mid:none;marker-end:url(#Arrow2Mend)"
       d="m 290,867.36218 c -10,15 -16,15 -35,20"
       id="path5063"
       inkscape:connector-curvature="0"
       sodipodi:nodetypes="cc" />
    <path
       style="fill:none;stroke:#000000;stroke-width:2.20000005;stroke-linecap:butt;stroke-linejoin:miter;stroke-miterlimit:4;stroke-opacity:1;stroke-dasharray:none;marker-start:none;marker-mid:none;marker-end:url(#Arrow2Mend)"
       d="m 310,982.36218 c -10,15 -21,14.99998 -40,20.00002"
       id="path5063-9"
       inkscape:connector-curvature="0"
       sodipodi:nodetypes="cc" />
    <path
       style="fill:none;stroke:#000000;stroke-width:2.20000005;stroke-linecap:butt;stroke-linejoin:miter;stroke-miterlimit:4;stroke-opacity:1;stroke-dasharray:none;marker-start:none;marker-mid:none;marker-end:url(#Arrow2Mend)"
       d="m 250,257.36218 c -20,-5 -40,-5 -60,5"
       id="path5063-4"
       inkscape:connector-curvature="0"
       sodipodi:nodetypes="cc" />
  </g>
</svg>
